<mxfile host="Electron" agent="Mozilla/5.0 (Windows NT 10.0; Win64; x64) AppleWebKit/537.36 (KHTML, like Gecko) draw.io/24.7.5 Chrome/126.0.6478.183 Electron/31.3.0 Safari/537.36" version="24.7.5">
  <diagram name="第 1 页" id="4ClM5RU8LTtiTHqYP2AW">
    <mxGraphModel dx="628" dy="731" grid="1" gridSize="10" guides="1" tooltips="1" connect="1" arrows="1" fold="1" page="1" pageScale="1" pageWidth="827" pageHeight="583" math="0" shadow="0">
      <root>
        <mxCell id="0" />
        <mxCell id="1" parent="0" />
        <mxCell id="TittOBE1qbPXq4GM97iB-9" style="edgeStyle=orthogonalEdgeStyle;rounded=0;orthogonalLoop=1;jettySize=auto;html=1;exitX=1;exitY=0.5;exitDx=0;exitDy=0;entryX=0;entryY=0.5;entryDx=0;entryDy=0;" edge="1" parent="1" source="TittOBE1qbPXq4GM97iB-1" target="TittOBE1qbPXq4GM97iB-6">
          <mxGeometry relative="1" as="geometry">
            <Array as="points">
              <mxPoint x="270" y="240" />
              <mxPoint x="270" y="165" />
            </Array>
          </mxGeometry>
        </mxCell>
        <mxCell id="TittOBE1qbPXq4GM97iB-10" style="edgeStyle=orthogonalEdgeStyle;rounded=0;orthogonalLoop=1;jettySize=auto;html=1;exitX=1;exitY=0.5;exitDx=0;exitDy=0;entryX=0;entryY=0.5;entryDx=0;entryDy=0;" edge="1" parent="1" source="TittOBE1qbPXq4GM97iB-1" target="TittOBE1qbPXq4GM97iB-7">
          <mxGeometry relative="1" as="geometry" />
        </mxCell>
        <mxCell id="TittOBE1qbPXq4GM97iB-12" style="edgeStyle=orthogonalEdgeStyle;rounded=0;orthogonalLoop=1;jettySize=auto;html=1;exitX=1;exitY=0.5;exitDx=0;exitDy=0;entryX=0;entryY=0.5;entryDx=0;entryDy=0;" edge="1" parent="1" source="TittOBE1qbPXq4GM97iB-1" target="TittOBE1qbPXq4GM97iB-8">
          <mxGeometry relative="1" as="geometry">
            <Array as="points">
              <mxPoint x="270" y="240" />
              <mxPoint x="270" y="315" />
            </Array>
          </mxGeometry>
        </mxCell>
        <mxCell id="TittOBE1qbPXq4GM97iB-14" value="&lt;font style=&quot;font-size: 34px;&quot;&gt;a&lt;/font&gt;" style="edgeLabel;html=1;align=center;verticalAlign=middle;resizable=0;points=[];" vertex="1" connectable="0" parent="TittOBE1qbPXq4GM97iB-12">
          <mxGeometry x="-0.6976" relative="1" as="geometry">
            <mxPoint as="offset" />
          </mxGeometry>
        </mxCell>
        <mxCell id="TittOBE1qbPXq4GM97iB-1" value="&lt;font style=&quot;font-size: 34px;&quot;&gt;s&lt;/font&gt;" style="ellipse;whiteSpace=wrap;html=1;aspect=fixed;fillColor=#dae8fc;strokeColor=#6c8ebf;" vertex="1" parent="1">
          <mxGeometry x="120" y="200" width="80" height="80" as="geometry" />
        </mxCell>
        <mxCell id="TittOBE1qbPXq4GM97iB-6" value="&lt;font style=&quot;font-size: 34px;&quot;&gt;G = 1&lt;/font&gt;" style="text;html=1;align=center;verticalAlign=middle;whiteSpace=wrap;rounded=0;" vertex="1" parent="1">
          <mxGeometry x="320" y="150" width="90" height="30" as="geometry" />
        </mxCell>
        <mxCell id="TittOBE1qbPXq4GM97iB-7" value="&lt;font style=&quot;font-size: 34px;&quot;&gt;G = 10&lt;/font&gt;" style="text;html=1;align=center;verticalAlign=middle;whiteSpace=wrap;rounded=0;" vertex="1" parent="1">
          <mxGeometry x="320" y="225" width="110" height="30" as="geometry" />
        </mxCell>
        <mxCell id="TittOBE1qbPXq4GM97iB-8" value="&lt;font style=&quot;font-size: 34px;&quot;&gt;G = 100&lt;/font&gt;" style="text;html=1;align=center;verticalAlign=middle;whiteSpace=wrap;rounded=0;" vertex="1" parent="1">
          <mxGeometry x="318" y="300" width="130" height="30" as="geometry" />
        </mxCell>
        <mxCell id="TittOBE1qbPXq4GM97iB-15" value="&lt;font style=&quot;font-size: 50px;&quot;&gt;?&lt;/font&gt;" style="text;html=1;align=center;verticalAlign=middle;whiteSpace=wrap;rounded=0;fontColor=#EA6B66;" vertex="1" parent="1">
          <mxGeometry x="448" y="225" width="60" height="30" as="geometry" />
        </mxCell>
      </root>
    </mxGraphModel>
  </diagram>
</mxfile>
